<svg xmlns="http://www.w3.org/2000/svg" xmlns:xlink="http://www.w3.org/1999/xlink" width="500" zoomAndPan="magnify" viewBox="0 0 375 374.999991" height="500" preserveAspectRatio="xMidYMid meet" version="1.0"><defs><clipPath id="2fbc4e328f"><path d="M 78.351562 94.453125 L 296.601562 94.453125 L 296.601562 245 L 78.351562 245 Z M 78.351562 94.453125 " clip-rule="nonzero"/></clipPath><clipPath id="9d1cdc4e6d"><path d="M 128 259 L 150 259 L 150 280.453125 L 128 280.453125 Z M 128 259 " clip-rule="nonzero"/></clipPath><clipPath id="da73c2e7ac"><path d="M 179 259 L 201 259 L 201 280.453125 L 179 280.453125 Z M 179 259 " clip-rule="nonzero"/></clipPath></defs><g clip-path="url(#2fbc4e328f)"><path fill="#ffffff" d="M 112.222656 199.746094 L 91.1875 129.550781 L 116.808594 129.550781 C 116.847656 129.710938 116.875 129.871094 116.914062 130.03125 C 117.878906 134.03125 121.40625 141.660156 140.753906 161.636719 C 151.035156 172.253906 161.078125 181.441406 161.175781 181.53125 C 162.199219 182.464844 163.496094 182.933594 164.792969 182.933594 C 166.089844 182.933594 167.382812 182.464844 168.40625 181.527344 C 168.507812 181.4375 178.546875 172.253906 188.824219 161.636719 C 208.160156 141.660156 211.6875 134.035156 212.660156 130.035156 C 212.699219 129.875 212.730469 129.714844 212.765625 129.550781 L 238.742188 129.550781 L 216.820312 199.746094 Z M 129.480469 113.738281 C 132.015625 109.585938 136.015625 106.667969 140.738281 105.527344 C 141.746094 105.28125 142.753906 105.160156 143.738281 105.160156 C 151.410156 105.160156 157.28125 112.582031 159.699219 119.9375 C 160.421875 122.136719 162.476562 123.625 164.792969 123.625 C 167.109375 123.625 169.160156 122.136719 169.882812 119.9375 C 172.300781 112.582031 178.167969 105.160156 185.835938 105.160156 C 186.820312 105.160156 187.828125 105.28125 188.839844 105.527344 C 193.5625 106.667969 197.5625 109.585938 200.09375 113.738281 C 201.964844 116.804688 202.867188 120.277344 202.75 123.785156 C 202.742188 123.921875 202.730469 124.054688 202.730469 124.195312 C 202.730469 124.199219 202.730469 124.199219 202.730469 124.203125 C 202.667969 125.308594 202.511719 126.414062 202.242188 127.507812 C 201.875 129.027344 199.265625 135.4375 181.15625 154.152344 C 174.816406 160.699219 168.566406 166.695312 164.789062 170.25 C 161.011719 166.695312 154.761719 160.699219 148.421875 154.148438 C 130.304688 135.4375 127.699219 129.03125 127.332031 127.507812 C 126.183594 122.78125 126.949219 117.894531 129.480469 113.738281 Z M 291.191406 94.441406 L 253.683594 94.441406 C 253.488281 94.441406 253.296875 94.449219 253.101562 94.46875 C 253.082031 94.472656 253.066406 94.476562 253.046875 94.480469 C 252.890625 94.496094 252.738281 94.515625 252.589844 94.546875 C 252.503906 94.566406 252.417969 94.589844 252.332031 94.613281 C 252.25 94.632812 252.171875 94.648438 252.089844 94.671875 C 251.984375 94.707031 251.882812 94.746094 251.777344 94.785156 C 251.722656 94.804688 251.664062 94.824219 251.605469 94.847656 C 251.503906 94.890625 251.402344 94.9375 251.304688 94.988281 C 251.25 95.015625 251.191406 95.039062 251.136719 95.070312 C 251.050781 95.117188 250.964844 95.167969 250.878906 95.21875 C 250.816406 95.257812 250.75 95.292969 250.6875 95.335938 C 250.617188 95.378906 250.554688 95.429688 250.488281 95.476562 C 250.414062 95.535156 250.335938 95.589844 250.261719 95.648438 C 250.214844 95.6875 250.167969 95.730469 250.121094 95.769531 C 250.039062 95.84375 249.953125 95.917969 249.875 95.996094 C 249.839844 96.03125 249.808594 96.066406 249.773438 96.105469 C 249.6875 96.195312 249.601562 96.285156 249.523438 96.378906 C 249.492188 96.414062 249.46875 96.453125 249.4375 96.488281 C 249.363281 96.585938 249.285156 96.6875 249.214844 96.789062 C 249.175781 96.84375 249.144531 96.902344 249.113281 96.957031 C 249.054688 97.046875 248.996094 97.136719 248.949219 97.226562 C 248.882812 97.34375 248.828125 97.464844 248.773438 97.582031 C 248.753906 97.621094 248.734375 97.65625 248.71875 97.695312 C 248.644531 97.867188 248.578125 98.046875 248.523438 98.230469 L 242.089844 118.835938 L 213.15625 118.835938 C 212.585938 115.101562 211.273438 111.484375 209.246094 108.160156 C 205.222656 101.5625 198.871094 96.925781 191.355469 95.109375 C 189.523438 94.667969 187.667969 94.445312 185.835938 94.445312 C 177.644531 94.445312 170.0625 98.890625 164.789062 106.34375 C 159.519531 98.890625 151.9375 94.445312 143.738281 94.445312 C 141.90625 94.445312 140.050781 94.667969 138.214844 95.113281 C 130.707031 96.929688 124.355469 101.5625 120.332031 108.160156 C 118.304688 111.484375 116.992188 115.105469 116.421875 118.835938 L 83.988281 118.835938 C 82.292969 118.835938 80.699219 119.636719 79.6875 120.996094 C 78.675781 122.355469 78.367188 124.109375 78.851562 125.730469 L 103.101562 206.640625 C 103.78125 208.910156 105.867188 210.460938 108.234375 210.460938 L 213.476562 210.460938 L 206.066406 234.1875 L 121.625 234.1875 C 118.664062 234.1875 116.265625 236.585938 116.265625 239.546875 C 116.265625 242.503906 118.664062 244.902344 121.625 244.902344 L 210.007812 244.902344 C 212.355469 244.902344 214.425781 243.378906 215.125 241.140625 L 225.851562 206.792969 C 225.871094 206.730469 225.890625 206.667969 225.910156 206.601562 L 257.589844 105.15625 L 291.191406 105.15625 C 294.152344 105.15625 296.550781 102.757812 296.550781 99.800781 C 296.550781 96.839844 294.152344 94.441406 291.191406 94.441406 " fill-opacity="1" fill-rule="nonzero"/></g><g clip-path="url(#9d1cdc4e6d)"><path fill="#ffffff" d="M 139.417969 270.105469 C 139.328125 270.105469 139.246094 270.019531 139.246094 269.925781 C 139.246094 269.835938 139.328125 269.746094 139.417969 269.746094 C 139.511719 269.746094 139.597656 269.832031 139.597656 269.925781 C 139.597656 270.023438 139.515625 270.105469 139.417969 270.105469 Z M 139.417969 259.390625 C 133.605469 259.390625 128.878906 264.117188 128.878906 269.925781 C 128.878906 275.734375 133.605469 280.460938 139.417969 280.460938 C 145.234375 280.460938 149.964844 275.734375 149.964844 269.925781 C 149.964844 264.117188 145.234375 259.390625 139.417969 259.390625 " fill-opacity="1" fill-rule="nonzero"/></g><g clip-path="url(#da73c2e7ac)"><path fill="#ffffff" d="M 190.152344 270.105469 C 190.058594 270.105469 189.972656 270.019531 189.972656 269.925781 C 189.972656 269.832031 190.058594 269.746094 190.152344 269.746094 C 190.246094 269.746094 190.332031 269.832031 190.332031 269.925781 C 190.332031 270.023438 190.25 270.105469 190.152344 270.105469 Z M 190.152344 259.390625 C 184.339844 259.390625 179.613281 264.117188 179.613281 269.925781 C 179.613281 275.734375 184.339844 280.460938 190.152344 280.460938 C 195.964844 280.460938 200.691406 275.734375 200.691406 269.925781 C 200.691406 264.117188 195.964844 259.390625 190.152344 259.390625 " fill-opacity="1" fill-rule="nonzero"/></g></svg>